<svg xmlns="http://www.w3.org/2000/svg" height="800" width="1200" viewBox="-153.59985 -35.80375 1331.1987 214.8225"><path d="M25.394.187c-29.314 0-34.205 24.226-9.66 54.105l41.546 50.386c14.962 18.172 28.737 32.367 34.855 37.182.17.129.336.18.582.18h42.101c-14.417-9.213-31.878-26.022-44.59-40.765L43.285 44.888c-10-12.171-8.335-18.653 3.262-17.075 5.853.796 21.905 8.591 39.55 24.83h36.195C94.022 20.834 61.045.187 25.394.187m124.812 143.028h28.946c-1.413-11.015-6.277-23.98-16.313-36.063h-31.816c11.433 13.808 16.606 24.42 19.183 36.063m485.174-38.838L589 3.065h-28.812l34.582 69.363-.942-.01-92.42-69.353h-40.953L605.27 110.18l27.823 33.008h35.012l-32.724-38.811M378.443 3.065l113.571 133.074-.95-.014L325.645 3.065h-33.503L408.71 142.002h33.296l-68.162-75.51h.944l94.536 76.696h57.89L409.658 3.065h-31.215m496.784 0l113.575 133.074-.95-.014-165.43-133.06h-33.518l116.598 138.937h33.274l-66.918-75.51h-.29l94.536 76.696H1024L906.42 3.065h-31.193m-711.717 0l71.608 138.943h29.817L210.592 40.637h.92L316.46 143.188h37.603L207.5 3.065h-43.99m576.665 98.137c12.736 14.765 30.23 31.595 44.652 40.8H742.68c-.247 0-.416-.035-.589-.161-6.134-4.831-19.918-19.049-34.906-37.224l-41.587-50.439C641.017 24.257 645.918 0 675.263 0c38.451 0 73.806 23.99 103.477 60.077l21.45 26.074c20.325 24.688 26.598 39.927 29.646 57.037h-27.56c-2.594-11.646-7.77-22.271-19.208-36.092l-30.394-36.981c-23.372-28.343-48.56-41.403-56.249-42.449-11.586-1.572-13.254 4.914-3.254 17.099l47.004 56.437"/></svg>